<?xml version="1.0" encoding="UTF-8"?>
<svg width="700pt" height="700pt" version="1.1" viewBox="0 0 700 700" xmlns="http://www.w3.org/2000/svg" xmlns:xlink="http://www.w3.org/1999/xlink">
 <defs>
  <symbol id="v" overflow="visible">
   <path d="m3.75-0.21875c-0.19922 0.09375-0.40234 0.16797-0.60938 0.21875-0.21094 0.050781-0.42969 0.078125-0.65625 0.078125-0.67969 0-1.2148-0.1875-1.6094-0.5625-0.39844-0.38281-0.59375-0.89844-0.59375-1.5469 0-0.65625 0.19531-1.1719 0.59375-1.5469 0.39453-0.38281 0.92969-0.57812 1.6094-0.57812 0.22656 0 0.44531 0.027344 0.65625 0.078125 0.20703 0.054687 0.41016 0.13281 0.60938 0.23438v0.84375c-0.19922-0.13281-0.39062-0.23438-0.57812-0.29688s-0.38672-0.09375-0.59375-0.09375c-0.375 0-0.67188 0.12109-0.89062 0.35938-0.21875 0.24219-0.32812 0.57422-0.32812 1 0 0.41797 0.10938 0.74609 0.32812 0.98438 0.21875 0.24219 0.51562 0.35938 0.89062 0.35938 0.20703 0 0.40625-0.03125 0.59375-0.09375s0.37891-0.15625 0.57812-0.28125z"/>
  </symbol>
  <symbol id="d" overflow="visible">
   <path d="m2.75-2.2188c-0.09375-0.039062-0.18359-0.070312-0.26562-0.09375-0.085937-0.019531-0.16797-0.03125-0.25-0.03125-0.25 0-0.44531 0.085938-0.57812 0.25-0.13672 0.15625-0.20312 0.38672-0.20312 0.6875v1.4062h-0.98438v-3.0625h0.98438v0.5c0.125-0.19531 0.26562-0.34375 0.42188-0.4375 0.16406-0.09375 0.36328-0.14062 0.59375-0.14062 0.03125 0 0.0625 0.007813 0.09375 0.015625 0.039062 0 0.097656 0.007812 0.17188 0.015625z"/>
  </symbol>
  <symbol id="a" overflow="visible">
   <path d="m3.5156-1.5312v0.26562h-2.2812c0.019531 0.23047 0.10156 0.40234 0.25 0.51562 0.14453 0.11719 0.34375 0.17188 0.59375 0.17188 0.20703 0 0.41406-0.023437 0.625-0.078125 0.21875-0.0625 0.44141-0.15625 0.67188-0.28125v0.75c-0.23047 0.09375-0.46094 0.16406-0.6875 0.20312-0.23047 0.039062-0.46484 0.0625-0.70312 0.0625-0.55469 0-0.98438-0.14062-1.2969-0.42188-0.30469-0.28125-0.45312-0.67578-0.45312-1.1875 0-0.5 0.14844-0.89062 0.45312-1.1719 0.30078-0.28906 0.71875-0.4375 1.25-0.4375 0.47656 0 0.85938 0.14844 1.1406 0.4375 0.28906 0.29297 0.4375 0.68359 0.4375 1.1719zm-1-0.32812c0-0.1875-0.058594-0.33594-0.17188-0.45312-0.10547-0.11328-0.24219-0.17188-0.40625-0.17188-0.19922 0-0.35547 0.058594-0.46875 0.17188-0.11719 0.10547-0.1875 0.25781-0.21875 0.45312z"/>
  </symbol>
  <symbol id="f" overflow="visible">
   <path d="m1.8438-1.375c-0.21094 0-0.36719 0.039062-0.46875 0.10938-0.10547 0.0625-0.15625 0.16406-0.15625 0.29688 0 0.125 0.039062 0.22656 0.125 0.29688 0.082031 0.0625 0.20312 0.09375 0.35938 0.09375 0.17578 0 0.32812-0.0625 0.45312-0.1875 0.125-0.13281 0.1875-0.30078 0.1875-0.5v-0.10938zm1.4844-0.375v1.75h-0.98438v-0.45312c-0.125 0.1875-0.27344 0.32422-0.4375 0.40625-0.16797 0.082031-0.36719 0.125-0.59375 0.125-0.32422 0-0.58594-0.085938-0.78125-0.26562-0.19922-0.1875-0.29688-0.42969-0.29688-0.73438 0-0.35156 0.125-0.61328 0.375-0.78125 0.25-0.16406 0.63281-0.25 1.1562-0.25h0.57812v-0.078125c0-0.15625-0.0625-0.26953-0.1875-0.34375-0.11719-0.070312-0.30469-0.10938-0.5625-0.10938-0.21094 0-0.40625 0.023437-0.59375 0.0625-0.17969 0.042969-0.33984 0.10547-0.48438 0.1875v-0.75c0.20703-0.039063 0.41406-0.078125 0.625-0.10938 0.20703-0.03125 0.41406-0.046875 0.625-0.046875 0.55078 0 0.94531 0.10938 1.1875 0.32812 0.25 0.21875 0.375 0.57422 0.375 1.0625z"/>
  </symbol>
  <symbol id="b" overflow="visible">
   <path d="m1.5312-3.9219v0.85938h1.0156v0.70312h-1.0156v1.2969c0 0.14844 0.023438 0.24609 0.078125 0.29688 0.0625 0.042969 0.17578 0.0625 0.34375 0.0625h0.5v0.70312h-0.82812c-0.38672 0-0.66406-0.078125-0.82812-0.23438-0.15625-0.16406-0.23438-0.44141-0.23438-0.82812v-1.2969h-0.48438v-0.70312h0.48438v-0.85938z"/>
  </symbol>
  <symbol id="i" overflow="visible">
   <path d="m2.5469-2.6094v-1.6406h0.98438v4.25h-0.98438v-0.4375c-0.13672 0.17969-0.28906 0.30859-0.45312 0.39062-0.15625 0.082031-0.33984 0.125-0.54688 0.125-0.375 0-0.6875-0.14453-0.9375-0.4375-0.24219-0.30078-0.35938-0.69141-0.35938-1.1719 0-0.46875 0.11719-0.85156 0.35938-1.1562 0.25-0.30078 0.5625-0.45312 0.9375-0.45312 0.20703 0 0.39062 0.046875 0.54688 0.14062 0.16406 0.085938 0.31641 0.21484 0.45312 0.39062zm-0.64062 1.9844c0.20703 0 0.36328-0.078125 0.46875-0.23438 0.11328-0.15625 0.17188-0.37891 0.17188-0.67188 0-0.28906-0.058594-0.50781-0.17188-0.65625-0.10547-0.15625-0.26172-0.23438-0.46875-0.23438-0.21094 0-0.37109 0.078125-0.48438 0.23438-0.10547 0.14844-0.15625 0.36719-0.15625 0.65625 0 0.29297 0.050781 0.51562 0.15625 0.67188 0.11328 0.15625 0.27344 0.23438 0.48438 0.23438z"/>
  </symbol>
  <symbol id="c" overflow="visible">
   <path d="m2.0938-0.625c0.20703 0 0.36719-0.078125 0.48438-0.23438 0.11328-0.15625 0.17188-0.37891 0.17188-0.67188 0-0.28906-0.058594-0.50781-0.17188-0.65625-0.11719-0.15625-0.27734-0.23438-0.48438-0.23438-0.21094 0-0.37109 0.078125-0.48438 0.23438-0.10547 0.14844-0.15625 0.36719-0.15625 0.65625 0 0.29297 0.050781 0.51562 0.15625 0.67188 0.11328 0.15625 0.27344 0.23438 0.48438 0.23438zm-0.64062-1.9844c0.13281-0.17578 0.28125-0.30469 0.4375-0.39062 0.16406-0.09375 0.35156-0.14062 0.5625-0.14062 0.38281 0 0.69531 0.15234 0.9375 0.45312 0.23828 0.30469 0.35938 0.6875 0.35938 1.1562 0 0.48047-0.12109 0.87109-0.35938 1.1719-0.24219 0.29297-0.55469 0.4375-0.9375 0.4375-0.21094 0-0.39844-0.042969-0.5625-0.125-0.15625-0.082031-0.30469-0.21094-0.4375-0.39062v0.4375h-0.98438v-4.25h0.98438z"/>
  </symbol>
  <symbol id="h" overflow="visible">
   <path d="m0.0625-3.0625h0.98438l0.82812 2.0781 0.6875-2.0781h0.98438l-1.2812 3.3594c-0.13672 0.33203-0.29297 0.56641-0.46875 0.70312-0.16797 0.13281-0.39062 0.20312-0.67188 0.20312h-0.5625v-0.64062h0.29688c0.16406 0 0.28516-0.027344 0.35938-0.078125 0.082031-0.054687 0.14453-0.14844 0.1875-0.28125l0.03125-0.078125z"/>
  </symbol>
  <symbol id="g" overflow="visible">
   <path d="m2-2.2656c0.22656 0 0.39062-0.039063 0.48438-0.125 0.09375-0.082031 0.14062-0.21875 0.14062-0.40625s-0.046875-0.31641-0.14062-0.39062c-0.09375-0.082031-0.25781-0.125-0.48438-0.125h-0.4375v1.0469zm-0.4375 0.71875v1.5469h-1.0469v-4.0781h1.6094c0.53125 0 0.92188 0.09375 1.1719 0.28125 0.25 0.17969 0.375 0.46094 0.375 0.84375 0 0.27344-0.070313 0.49609-0.20312 0.67188-0.125 0.16797-0.32031 0.29297-0.57812 0.375 0.14453 0.03125 0.27344 0.10547 0.39062 0.21875 0.11328 0.11719 0.22656 0.29297 0.34375 0.53125l0.57812 1.1562h-1.125l-0.5-1.0156c-0.10547-0.19531-0.21094-0.33203-0.3125-0.40625-0.09375-0.082031-0.23047-0.125-0.40625-0.125z"/>
  </symbol>
  <symbol id="u" overflow="visible">
   <path d="m0.46875-3.0625h0.98438v3.0625h-0.98438zm0-1.1875h0.98438v0.79688h-0.98438z"/>
  </symbol>
  <symbol id="t" overflow="visible">
   <path d="m0.51562-4.0781h1.0469v3.6875c0 0.5-0.14062 0.875-0.42188 1.125-0.27344 0.25781-0.68359 0.39062-1.2344 0.39062h-0.21875v-0.79688h0.15625c0.21875 0 0.38281-0.0625 0.5-0.1875 0.11328-0.125 0.17188-0.30078 0.17188-0.53125z"/>
  </symbol>
  <symbol id="s" overflow="visible">
   <path d="m2.8594-2.9688v0.75c-0.21094-0.09375-0.41406-0.16016-0.60938-0.20312-0.1875-0.039063-0.37109-0.0625-0.54688-0.0625-0.1875 0-0.32812 0.027344-0.42188 0.078125-0.085938 0.042969-0.125 0.10938-0.125 0.20312 0 0.085937 0.03125 0.14844 0.09375 0.1875 0.070312 0.042969 0.19531 0.074219 0.375 0.09375l0.17188 0.015625c0.5 0.0625 0.83203 0.16797 1 0.3125 0.17578 0.14844 0.26562 0.375 0.26562 0.6875 0 0.33594-0.12109 0.58594-0.35938 0.75-0.24219 0.15625-0.60156 0.23438-1.0781 0.23438-0.19922 0-0.40625-0.015625-0.625-0.046875s-0.4375-0.078125-0.65625-0.14062v-0.75c0.1875 0.09375 0.38281 0.16797 0.59375 0.21875 0.20703 0.042969 0.41406 0.0625 0.625 0.0625 0.1875 0 0.32812-0.023437 0.42188-0.078125 0.10156-0.050781 0.15625-0.12891 0.15625-0.23438 0-0.082031-0.039063-0.14453-0.10938-0.1875-0.0625-0.039063-0.19531-0.078125-0.39062-0.10938l-0.17188-0.015625c-0.4375-0.050781-0.74609-0.14844-0.92188-0.29688-0.16797-0.14453-0.25-0.36719-0.25-0.67188 0-0.32031 0.10938-0.5625 0.32812-0.71875 0.21875-0.16406 0.55469-0.25 1.0156-0.25 0.1875 0 0.37891 0.015625 0.57812 0.046875 0.19531 0.03125 0.41016 0.074219 0.64062 0.125z"/>
  </symbol>
  <symbol id="r" overflow="visible">
   <path d="m2.4844-4.25v0.64062h-0.54688c-0.13672 0-0.23047 0.027344-0.28125 0.078125-0.054688 0.054688-0.078125 0.14062-0.078125 0.26562v0.20312h0.82812v0.70312h-0.82812v2.3594h-0.98438v-2.3594h-0.48438v-0.70312h0.48438v-0.20312c0-0.33203 0.09375-0.57812 0.28125-0.73438 0.1875-0.16406 0.47266-0.25 0.85938-0.25z"/>
  </symbol>
  <symbol id="e" overflow="visible">
   <path d="m1.9219-2.4375c-0.21875 0-0.38672 0.078125-0.5 0.23438-0.10547 0.15625-0.15625 0.38281-0.15625 0.67188 0 0.29297 0.050781 0.51562 0.15625 0.67188 0.11328 0.15625 0.28125 0.23438 0.5 0.23438s0.37891-0.078125 0.48438-0.23438c0.11328-0.15625 0.17188-0.37891 0.17188-0.67188 0-0.28906-0.058594-0.51562-0.17188-0.67188-0.10547-0.15625-0.26562-0.23438-0.48438-0.23438zm0-0.70312c0.53125 0 0.94141 0.14844 1.2344 0.4375 0.30078 0.28125 0.45312 0.67188 0.45312 1.1719 0 0.51172-0.15234 0.90625-0.45312 1.1875-0.29297 0.28125-0.70312 0.42188-1.2344 0.42188-0.52344 0-0.93359-0.14062-1.2344-0.42188-0.30469-0.28125-0.45312-0.67578-0.45312-1.1875 0-0.5 0.14844-0.89062 0.45312-1.1719 0.30078-0.28906 0.71094-0.4375 1.2344-0.4375z"/>
  </symbol>
  <symbol id="q" overflow="visible">
   <path d="m3.3125-2.5469c0.11328-0.1875 0.25391-0.33203 0.42188-0.4375 0.17578-0.10156 0.36719-0.15625 0.57812-0.15625 0.34375 0 0.60938 0.10938 0.79688 0.32812s0.28125 0.53906 0.28125 0.95312v1.8594h-0.98438v-1.5938-0.0625-0.125c0-0.21875-0.03125-0.375-0.09375-0.46875s-0.16797-0.14062-0.3125-0.14062c-0.1875 0-0.33594 0.078125-0.4375 0.23438-0.09375 0.14844-0.14062 0.36719-0.14062 0.65625v1.5h-0.98438v-1.5938c0-0.34375-0.03125-0.5625-0.09375-0.65625-0.054688-0.09375-0.15625-0.14062-0.3125-0.14062-0.1875 0-0.33594 0.078125-0.4375 0.23438-0.09375 0.14844-0.14062 0.36719-0.14062 0.65625v1.5h-0.98438v-3.0625h0.98438v0.45312c0.11328-0.17578 0.25-0.30469 0.40625-0.39062 0.15625-0.09375 0.32812-0.14062 0.51562-0.14062 0.20703 0 0.39062 0.054687 0.54688 0.15625 0.16406 0.10547 0.29688 0.25 0.39062 0.4375z"/>
  </symbol>
  <symbol id="p" overflow="visible">
   <path d="m3.5469-1.8594v1.8594h-0.98438v-1.4219c0-0.26953-0.007812-0.45312-0.015625-0.54688-0.011719-0.10156-0.03125-0.17578-0.0625-0.21875-0.042969-0.0625-0.09375-0.10938-0.15625-0.14062-0.0625-0.039063-0.13672-0.0625-0.21875-0.0625-0.21094 0-0.37109 0.078125-0.48438 0.23438-0.11719 0.15625-0.17188 0.375-0.17188 0.65625v1.5h-0.98438v-4.25h0.98438v1.6406c0.14453-0.17578 0.30078-0.30469 0.46875-0.39062 0.16406-0.09375 0.34766-0.14062 0.54688-0.14062 0.35156 0 0.61719 0.10938 0.79688 0.32812 0.1875 0.21875 0.28125 0.53906 0.28125 0.95312z"/>
  </symbol>
  <symbol id="o" overflow="visible">
   <path d="m0.51562-4.0781h1.1719l1.4844 2.7969v-2.7969h1v4.0781h-1.1719l-1.4844-2.7969v2.7969h-1z"/>
  </symbol>
  <symbol id="n" overflow="visible">
   <path d="m0.4375-1.1875v-1.875h0.98438v0.3125 0.625 0.5c0 0.24219 0.003906 0.41797 0.015625 0.53125 0.007812 0.10547 0.03125 0.18359 0.0625 0.23438 0.039062 0.0625 0.09375 0.11719 0.15625 0.15625 0.0625 0.03125 0.13281 0.046875 0.21875 0.046875 0.20703 0 0.36719-0.078125 0.48438-0.23438 0.11328-0.15625 0.17188-0.375 0.17188-0.65625v-1.5156h0.98438v3.0625h-0.98438v-0.4375c-0.14844 0.17969-0.30469 0.30859-0.46875 0.39062-0.16797 0.082031-0.35156 0.125-0.54688 0.125-0.35547 0-0.625-0.10938-0.8125-0.32812-0.17969-0.21875-0.26562-0.53125-0.26562-0.9375z"/>
  </symbol>
  <symbol id="m" overflow="visible">
   <path d="m3.5469-1.8594v1.8594h-0.98438v-1.4219c0-0.26953-0.007812-0.45312-0.015625-0.54688-0.011719-0.10156-0.03125-0.17578-0.0625-0.21875-0.042969-0.0625-0.09375-0.10938-0.15625-0.14062-0.0625-0.039063-0.13672-0.0625-0.21875-0.0625-0.21094 0-0.37109 0.078125-0.48438 0.23438-0.11719 0.15625-0.17188 0.375-0.17188 0.65625v1.5h-0.98438v-3.0625h0.98438v0.45312c0.14453-0.17578 0.30078-0.30469 0.46875-0.39062 0.16406-0.09375 0.34766-0.14062 0.54688-0.14062 0.35156 0 0.61719 0.10938 0.79688 0.32812 0.1875 0.21875 0.28125 0.53906 0.28125 0.95312z"/>
  </symbol>
  <symbol id="l" overflow="visible">
   <path d="m0.51562-4.0781h1.75c0.50781 0 0.90625 0.11719 1.1875 0.34375 0.28125 0.23047 0.42188 0.55859 0.42188 0.98438 0 0.42969-0.14062 0.75781-0.42188 0.98438-0.28125 0.23047-0.67969 0.34375-1.1875 0.34375h-0.70312v1.4219h-1.0469zm1.0469 0.76562v1.1406h0.57812c0.20703 0 0.36328-0.046875 0.46875-0.14062 0.11328-0.10156 0.17188-0.25 0.17188-0.4375 0-0.17578-0.058594-0.3125-0.17188-0.40625-0.10547-0.10156-0.26172-0.15625-0.46875-0.15625z"/>
  </symbol>
  <symbol id="k" overflow="visible">
   <path d="m0.46875-3.0625h0.98438v3.0156c0 0.40625-0.10156 0.71094-0.29688 0.92188-0.19922 0.21875-0.48438 0.32812-0.85938 0.32812h-0.48438v-0.64062h0.17188c0.1875 0 0.3125-0.042969 0.375-0.125 0.070313-0.085938 0.10938-0.24609 0.10938-0.48438zm0-1.1875h0.98438v0.79688h-0.98438z"/>
  </symbol>
  <symbol id="j" overflow="visible">
   <path d="m2.9375-2.9688v0.79688c-0.125-0.082031-0.25781-0.14453-0.39062-0.1875-0.13672-0.050781-0.27734-0.078125-0.42188-0.078125-0.27344 0-0.48438 0.085938-0.64062 0.25-0.14844 0.15625-0.21875 0.375-0.21875 0.65625 0 0.29297 0.070313 0.51562 0.21875 0.67188 0.15625 0.15625 0.36719 0.23438 0.64062 0.23438 0.15625 0 0.30078-0.019531 0.4375-0.0625 0.13281-0.039062 0.25781-0.10938 0.375-0.20312v0.79688c-0.14844 0.0625-0.30469 0.10156-0.46875 0.125-0.15625 0.03125-0.3125 0.046875-0.46875 0.046875-0.55469 0-0.98438-0.14062-1.2969-0.42188s-0.46875-0.67578-0.46875-1.1875c0-0.5 0.15625-0.89062 0.46875-1.1719 0.3125-0.28906 0.74219-0.4375 1.2969-0.4375 0.16406 0 0.32031 0.015625 0.46875 0.046875 0.15625 0.03125 0.3125 0.074219 0.46875 0.125z"/>
  </symbol>
 </defs>
 <g>
  <path d="m616.96 415.73c-6.6367-6.3438-15.605-9.6445-24.766-9.125-24.352 1.3008-37.645 16.758-44.512 29.5-2.5938 4.6328-8.3438 6.4492-13.129 4.1445-10.336-4.918-21.543-7.7383-32.973-8.3008v-33.266c40.309-2.3984 72.523-39.859 71.98-79.703v0.003907c-0.003906-7.6992-1.1016-15.359-3.2578-22.75l-65.941-225.66c-2.3828-8.2773-14.336-8.3789-16.754 0l-42.031 143.81c-0.86719 2.9688 0.83594 6.0781 3.8047 6.9453 2.9688 0.86719 6.0781-0.83594 6.9453-3.8047l39.656-135.7 63.57 217.53c1.8633 6.3711 2.8086 12.977 2.8125 19.613 0.44922 33.773-26.586 66.078-60.781 68.48v-55.152l28.949-31.34c4.8516-5.5859-3.0352-12.887-8.2266-7.5977l-20.719 22.434v-35.801c0-3.0938-2.5078-5.6016-5.6016-5.6016s-5.6016 2.5078-5.6016 5.6016v107.46c-12.23-1.0352-23.898-5.5977-33.594-13.129-3.2969-2.5469-6.3594-5.3828-9.1523-8.4727-2.0859-2.2383-5.582-2.3906-7.8516-0.33984-2.2695 2.0469-2.4766 5.5391-0.46094 7.8438 3.2383 3.5859 6.793 6.8789 10.621 9.832 11.684 8.9883 25.738 14.371 40.438 15.484v33.551c-35.363 3.293-61.789 28.566-70.941 38.566v-0.003907c-0.90625 0.98438-2.1797 1.5508-3.5156 1.5703-26.656 0.60938-46.281 10.215-60.32 21.738l-0.003907-98.711c14.051-0.82422 27.75-4.707 40.141-11.375 53.293-27.078 81.688-84.285 55.574-139.75-32.016-67.262-63.207-145.32-92.691-231.97-1.2031-3.75-4.6875-6.2969-8.625-6.2969s-7.4219 2.5469-8.625 6.2969c-29.488 86.664-60.676 164.71-92.691 231.97-26.102 55.461 2.2695 112.67 55.574 139.75v-0.003907c12.395 6.6719 26.094 10.555 40.141 11.379v109.45c-11.094 11.438-21.789 33.5-23.719 40.785h-236.88v-105.61c-0.27734-12.391 11.047-23.176 23.406-22.227 19.156 1.0234 29.738 13.414 35.242 23.633l0.003907-0.003906c2.6133 4.7422 6.9336 8.3086 12.082 9.9805 5.1484 1.668 10.742 1.3086 15.637-1 49.859-23.184 90.77 15.535 102.14 27.969 2.9805 3.2148 7.1328 5.0859 11.516 5.1875 8.5742 0.15625 17.086 1.4883 25.297 3.9648 2.9414 0.86719 6.0352-0.79297 6.9375-3.7227 0.89844-2.9336-0.72266-6.043-3.6445-6.9805-9.1953-2.7812-18.73-4.2812-28.336-4.457-1.332-0.027344-2.6016-0.58594-3.5156-1.5586-9.1445-10.008-35.562-35.305-70.941-38.586v-33.539c14.699-1.1133 28.754-6.4961 40.441-15.48 3.1992-2.4727 6.2109-5.1797 9.0078-8.1016 1.0469-1.0703 1.6211-2.5117 1.5977-4.0078-0.023437-1.4961-0.64453-2.918-1.7266-3.9531-1.0781-1.0352-2.5273-1.5938-4.0234-1.5547-1.4961 0.042969-2.9141 0.67969-3.9336 1.7695-2.4141 2.5156-5.0117 4.8516-7.7695 6.9805-9.6914 7.5352-21.363 12.094-33.594 13.129v-107.46c0-3.0938-2.5078-5.6016-5.5977-5.6016-3.0938 0-5.6016 2.5078-5.6016 5.6016v35.797l-20.719-22.434c-1.0078-1.0938-2.4102-1.7422-3.8945-1.8008-1.4844-0.058594-2.9297 0.47266-4.0234 1.4805-1.0898 1.0078-1.7383 2.4102-1.7969 3.8945s0.47656 2.9336 1.4844 4.0234l28.949 31.344v55.156c-41.785-3.0742-70.57-48.609-57.973-88.09l63.574-217.54 38.668 132.31c0.87109 2.9688 3.9805 4.6719 6.9492 3.8047 2.9688-0.86719 4.6719-3.9766 3.8047-6.9453l-41.043-140.43c-1.0859-3.7227-4.5-6.2852-8.3789-6.2852-3.8789 0-7.293 2.5625-8.375 6.2852l-65.949 225.65c-14.82 46.445 19.586 99.461 68.723 102.45v33.262c-11.43 0.56641-22.633 3.3906-32.969 8.3047-4.7852 2.3047-10.539 0.48828-13.141-4.1406-6.8594-12.742-20.148-28.199-44.5-29.5-9.168-0.48437-18.129 2.8203-24.785 9.1406-6.6602 6.3164-10.426 15.094-10.426 24.273v111.2c0 1.4844 0.58984 2.9102 1.6406 3.9609 1.0508 1.0508 2.4766 1.6406 3.9609 1.6406 133.43 0.023438 409.14-0.015624 543.6 0 1.4844 0 2.9102-0.58984 3.9609-1.6406 1.0469-1.0508 1.6406-2.4766 1.6406-3.9609v-111.21c0.035156-9.1914-3.75-17.988-10.445-24.285zm-307.39-41.582c-48.016-24.438-74.305-74.891-50.762-125.07 31.484-66.148 62.156-142.62 91.199-227.38 29.043 84.758 59.715 161.23 91.203 227.38 23.535 50.191-2.7422 100.63-50.766 125.07-10.762 5.793-22.641 9.207-34.836 10.016v-115.27l41.523-37.133c5.3633-5.0977-1.793-13.113-7.4648-8.3477l-34.059 30.453v-26.285c-0.22266-7.3906-10.977-7.4062-11.199 0v64.398l-25.418-21.629c-5.7812-4.6211-12.75 3.5586-7.2578 8.5273l32.672 27.816v77.473c-12.195-0.80859-24.074-4.2227-34.836-10.016zm306.64 171.47h-283.6c12.773-34.477 43.82-62.18 83.578-62.055 4.3867-0.10547 8.543-1.9883 11.52-5.2109 11.363-12.414 52.312-51.121 102.14-27.953 4.8945 2.3086 10.484 2.6641 15.633 0.99609 5.1484-1.6719 9.4688-5.2422 12.074-9.9844 5.5039-10.215 16.086-22.602 35.246-23.633 6.0938-0.31641 12.051 1.8828 16.477 6.0859 4.4258 4.1992 6.9336 10.035 6.9297 16.141z"/>
  <path d="m136.75 474.78c-7.3633-0.65234-8.6836 9.9883-1.3516 11.121 11.777 1.4297 43.141 9.2148 46.77 27.812v-0.003907c0.27734 1.4648 1.1289 2.7578 2.3633 3.5938 1.2344 0.83203 2.75 1.1445 4.2109 0.85938 1.4609-0.28516 2.75-1.1445 3.582-2.3789 0.82812-1.2383 1.1289-2.7578 0.83594-4.2188-5.9102-30.312-54.352-36.535-56.41-36.785z"/>
  <path d="m258.1 497.13c-7.2656 1.3984-5.5742 12 1.7734 11.059 6.5781-1.0547 26.32-1.793 30.586 8.3477l0.003906 0.003907c1.1992 2.8477 4.4844 4.1875 7.3359 2.9883 2.8477-1.2031 4.1875-4.4844 2.9883-7.3359-8.5469-20.293-41.297-15.285-42.688-15.062z"/>
  <path d="m559.85 470.95c-2.6719-1.5391-6.0898-0.62891-7.6406 2.0391-0.0625 0.10547-6.3047 10.605-15.59 10-13.863-1.1289-45.391-6.1484-55.52 20.652-2.2148 7.0312 7.8906 10.629 10.574 3.6875 5.5664-16.293 27.707-14.965 44.199-13.164 16.301 1.0742 25.656-14.918 26.043-15.598h0.003907c1.5273-2.6758 0.60156-6.082-2.0703-7.6172z"/>
  <path d="m387.47 511.63c-8.7031 1.8203-13.777 12.191-14.328 13.371-1.2656 2.7891-0.054687 6.0781 2.7188 7.3828 2.7734 1.3008 6.0781 0.13281 7.418-2.6211 1.2891-2.707 4.2578-6.7031 6.4883-7.168 7.1914-1.7383 5.0039-12.254-2.2969-10.965z"/>
  <use x="70" y="576.800781" xlink:href="#v"/>
  <use x="74.109375" y="576.800781" xlink:href="#d"/>
  <use x="76.871094" y="576.800781" xlink:href="#a"/>
  <use x="80.667969" y="576.800781" xlink:href="#f"/>
  <use x="84.449219" y="576.800781" xlink:href="#b"/>
  <use x="87.125" y="576.800781" xlink:href="#a"/>
  <use x="90.921875" y="576.800781" xlink:href="#i"/>
  <use x="96.882812" y="576.800781" xlink:href="#c"/>
  <use x="100.890625" y="576.800781" xlink:href="#h"/>
  <use x="106.488281" y="576.800781" xlink:href="#g"/>
  <use x="110.800781" y="576.800781" xlink:href="#f"/>
  <use x="114.582031" y="576.800781" xlink:href="#c"/>
  <use x="118.589844" y="576.800781" xlink:href="#c"/>
  <use x="122.597656" y="576.800781" xlink:href="#u"/>
  <use x="124.519531" y="576.800781" xlink:href="#b"/>
  <use x="129.144531" y="576.800781" xlink:href="#t"/>
  <use x="131.226562" y="576.800781" xlink:href="#a"/>
  <use x="135.027344" y="576.800781" xlink:href="#s"/>
  <use x="70" y="582.398437" xlink:href="#r"/>
  <use x="72.4375" y="582.398437" xlink:href="#d"/>
  <use x="75.199219" y="582.398437" xlink:href="#e"/>
  <use x="79.046875" y="582.398437" xlink:href="#q"/>
  <use x="86.828125" y="582.398437" xlink:href="#b"/>
  <use x="89.507812" y="582.398437" xlink:href="#p"/>
  <use x="93.492188" y="582.398437" xlink:href="#a"/>
  <use x="99.242188" y="582.398437" xlink:href="#o"/>
  <use x="103.929688" y="582.398437" xlink:href="#e"/>
  <use x="107.773438" y="582.398437" xlink:href="#n"/>
  <use x="111.761719" y="582.398437" xlink:href="#m"/>
  <use x="117.699219" y="582.398437" xlink:href="#l"/>
  <use x="121.800781" y="582.398437" xlink:href="#d"/>
  <use x="124.5625" y="582.398437" xlink:href="#e"/>
  <use x="128.410156" y="582.398437" xlink:href="#k"/>
  <use x="130.332031" y="582.398437" xlink:href="#a"/>
  <use x="134.128906" y="582.398437" xlink:href="#j"/>
  <use x="137.449219" y="582.398437" xlink:href="#b"/>
 </g>
</svg>
